<svg xmlns="http://www.w3.org/2000/svg" xmlns:xlink="http://www.w3.org/1999/xlink" viewBox="0 0 118.6 141.74"><defs><style>.cls-1,.cls-2,.cls-3,.cls-4,.cls-5{fill-rule:evenodd;}.cls-1{fill:url(#New_Gradient_Swatch_4);}.cls-2{fill:url(#New_Gradient_Swatch_4-2);}.cls-3{fill:url(#New_Gradient_Swatch_2);}.cls-4{fill:url(#New_Gradient_Swatch_1);}.cls-5{fill:url(#New_Gradient_Swatch_1-2);}</style><radialGradient id="New_Gradient_Swatch_4" cx="140.43" cy="30.91" r="233.55" gradientUnits="userSpaceOnUse"><stop offset="0" stop-color="#fff"/><stop offset="0.5" stop-color="#31b1e7"/><stop offset="1" stop-color="#323390"/></radialGradient><radialGradient id="New_Gradient_Swatch_4-2" cx="94.93" cy="175.24" r="103.3" xlink:href="#New_Gradient_Swatch_4"/><linearGradient id="New_Gradient_Swatch_2" x1="115.48" y1="16.43" x2="53.98" y2="113.43" gradientUnits="userSpaceOnUse"><stop offset="0" stop-color="#fff"/><stop offset="1" stop-color="#fff" stop-opacity="0"/></linearGradient><radialGradient id="New_Gradient_Swatch_1" cx="56.93" cy="-78.42" r="224" gradientUnits="userSpaceOnUse"><stop offset="0" stop-color="#fff"/><stop offset="0.28" stop-color="#e5e500"/><stop offset="0.8" stop-color="#17953b"/></radialGradient><radialGradient id="New_Gradient_Swatch_1-2" cx="29.92" cy="9.91" r="118.5" xlink:href="#New_Gradient_Swatch_1"/></defs><g id="Capa_2" data-name="Capa 2"><g id="Layer_1" data-name="Layer 1"><text/><path class="cls-1" d="M91.85,76.59C68.58,87.05,57.19,120.2,22.47,112.4,10.6,109.73,1.23,100.4,0,81.57c0,13.55,3.68,26.71,12,36.12a60.2,60.2,0,0,0,104.84-16C123.13,84.11,111.83,67.61,91.85,76.59Zm4.85,35.06c-7,11.54-25.56,19.28-44.51,13.38C70.58,120.16,82.82,103.11,98,99.36,101.53,100.94,98.27,109.07,96.7,111.65Z"/><path class="cls-2" d="M98,99.35c3.56,1.58.29,9.72-1.28,12.3-7,11.54-25.56,19.28-44.51,13.38C37,129.78,21.72,128.58,12,117.69a60.19,60.19,0,0,0,90.27,6.84C116.56,106.27,111.06,96.11,98,99.35Z"/><path class="cls-3" d="M92.69,78.44c-14.88,6.69-24.92,22.8-39.35,31.32-9.94,5.86-20.08,7.14-31.31,4.62a28.52,28.52,0,0,1-15.31-8.8c5.86,11,17.12,15.32,27,15.32,20.64,0,36-13.6,52.42-27.78,14.37-12.37,28.38-12.11,29.7,5.2C119.72,82.48,109.13,71.05,92.69,78.44Z"/><path class="cls-4" d="M55.64,18.83C51.41,3.06,38.92-1.45,21.8.38a42.65,42.65,0,0,1,8.76,2.05l3.71,0-2.07.58a24.77,24.77,0,0,1,6.46,3.88l5.64,0L40.08,8.26a16.4,16.4,0,0,1,3.73,5.63L49.61,15l-5.25.33a18.28,18.28,0,0,1,.92,4.37C29,8.39,15,14.32,1.87,25.64a71.78,71.78,0,0,1,8.44-2.26l4.41-3.84L12.7,23a39.14,39.14,0,0,1,9-.36l5.17-3.85-3.27,4.06a31.68,31.68,0,0,1,6.75,1.75l5.5-3.26L32,25.24a32.79,32.79,0,0,1,3.12,1.59A60.37,60.37,0,0,0,3.61,61C-9,95.77,24.45,122.66,56.14,97.43,6.07,108.92,4.56,46.92,44.29,34.71a31.6,31.6,0,0,1,3.38,5.72l6.77-.15L48.5,42.4A41.29,41.29,0,0,1,51,53.3l5.95,0L51.09,55.2a64.2,64.2,0,0,1-.39,11.07l3.29,0-3.41,1a105.94,105.94,0,0,1-3.33,15.6C59.18,70.68,67.73,55.74,58.5,35.11A19.82,19.82,0,0,1,65.77,37l1.82-4.68-.17,5.56A20,20,0,0,1,74,43.8l3.72-4.29-2.67,5.71A31.8,31.8,0,0,1,79,52.6l2.92-1.86-2.44,3.11a50.06,50.06,0,0,1,2.73,12.63C87.24,50.74,83.1,34.24,63.33,26a28.78,28.78,0,0,1,5-4l-3.41-6,4.69,5.25a22.9,22.9,0,0,1,8.06-3L76,13.1,79.21,18a22.7,22.7,0,0,1,8.93.68l-.88-3,2,3.33a35.24,35.24,0,0,1,8.93,4.27C84,6,64.05,10.21,55.64,18.83Z"/><path class="cls-5" d="M44.29,34.71c-28.33,6-50.6,41.62-36,62.38,10.19,12,29.32,15.08,47.84.34C6.07,108.92,4.56,46.92,44.29,34.71Z"/></g></g></svg>